<?xml version="1.0" encoding="utf-8"?>
<!-- Generator: Adobe Illustrator 24.1.3, SVG Export Plug-In . SVG Version: 6.00 Build 0)  -->
<svg version="1.1" id="Layer_1" xmlns="http://www.w3.org/2000/svg" xmlns:xlink="http://www.w3.org/1999/xlink" x="0px" y="0px"
	 viewBox="0 0 612 792" style="enable-background:new 0 0 612 792;" xml:space="preserve">
<style type="text/css">
	.st0{opacity:0.2;fill:#606060;}
</style>
<g>
	<path class="st0" d="M587.71,430.15c0,40.64-0.67,81.3,0.21,121.92c0.71,33.07-28.49,64.47-62.38,62.99
		c-35.57-1.56-71.24-0.46-106.86-1.03c-17.46-0.28-27.92-8.4-32.91-24.96c-10.35-34.3,11.15-61.04,42.84-59.76
		c15.76,0.64,31.57,0.18,47.35-0.09c13.03-0.23,18.52-5.46,19.84-18.44c0.41-4.06,0.34-8.18,0.34-12.27
		c0.01-61.69,0.09-123.39-0.14-185.08c-0.03-6.89-0.86-14.11-3.03-20.61c-5.72-17.13-19.9-20.28-32.07-6.98
		c-14.79,16.17-28.68,33.16-43.18,49.6c-21.84,24.77-43.87,49.39-65.84,74.05c-1.94,2.18-4.02,4.25-6.08,6.32
		c-26.31,26.53-53.44,26.89-79.28,0.15c-17.05-17.65-33.34-36.05-49.58-54.46c-21.07-23.9-41.72-48.17-62.62-72.21
		c-2.48-2.85-5.17-5.64-8.2-7.85c-8.66-6.31-18.02-5.19-23.24,4.18c-3.69,6.63-6.57,14.73-6.62,22.2
		c-0.49,66.37-0.38,132.74-0.18,199.11c0.05,16.64,5.84,22.12,22.25,22.34c16.08,0.22,32.16,0.03,48.23,0.19
		c17.84,0.17,33.27,10.35,39.32,25.7c6.5,16.5,2.57,39.98-9.98,50.45c-5.23,4.37-12.91,7.77-19.62,8.05
		c-28.87,1.21-57.79,1.15-86.7,1.43c-9.06,0.09-18.12-0.16-27.18-0.39c-30.71-0.76-57.86-27.2-57.99-57.89
		c-0.35-84.2-0.56-168.41,0.15-252.61c0.22-25.99,4.37-51.79,15.3-75.91c14.16-31.25,37.68-47.63,72.54-50.73
		c36.3-3.22,66.66,7.36,91.14,33.15c29.75,31.33,58.17,63.94,86.97,96.18c17.18,19.23,13.91,19.07,30.74,0.26
		c28.82-32.22,57.33-64.73,86.97-96.18c14.5-15.39,32.03-27.35,53.58-31.56c20.08-3.92,40.12-3.24,59.8,2.05
		c22.99,6.18,38.23,21.76,48.52,42.57c13.12,26.52,16.94,55.2,17.43,84.22C588.22,348.86,587.71,389.51,587.71,430.15z"/>
</g>
</svg>
